<?xml version="1.0" encoding="utf-8"?>
<!-- Generator: Adobe Illustrator 21.0.0, SVG Export Plug-In . SVG Version: 6.00 Build 0)  -->
<svg version="1.1" id="Camada_1" xmlns="http://www.w3.org/2000/svg" xmlns:xlink="http://www.w3.org/1999/xlink" x="0px" y="0px"
	 viewBox="0 0 30 30" style="enable-background:new 0 0 30 30;" xml:space="preserve">
<style type="text/css">
	.st0{fill:#FFFFFF;}
</style>
<path class="st0" d="M26.9,11.3c-0.6-3.7-3.7-6-7.3-5.7c-1.9,0.2-3.5,1.1-4.4,2.8c0,0.1-0.1,0.1-0.1,0.2c-0.1-0.1-0.1-0.2-0.2-0.3
	c-0.6-1.1-1.5-1.8-2.6-2.3C9.6,5,6.6,5.6,4.8,7.7C3,9.6,2.7,11.9,3.3,14.3c0.5,2.2,1.7,4,3.1,5.7c2.4,2.7,5.3,4.9,8.3,6.7
	c0.1,0.1,0.4,0.1,0.5,0c2.2-1.3,4.2-2.7,6.1-4.4c1.8-1.7,3.5-3.5,4.6-5.8C26.7,14.9,27.2,13.1,26.9,11.3z"/>
</svg>
