<?xml version="1.0" encoding="utf-8"?>
<!-- Generator: Adobe Illustrator 24.1.2, SVG Export Plug-In . SVG Version: 6.00 Build 0)  -->
<svg version="1.1" id="Camada_1" xmlns="http://www.w3.org/2000/svg" xmlns:xlink="http://www.w3.org/1999/xlink" x="0px" y="0px"
	 viewBox="0 0 500 100" style="enable-background:new 0 0 500 100;" xml:space="preserve">
<style type="text/css">
	.st0{fill:#FFFFFF;}
</style>
<g>
	<g>
		<path class="st0" d="M26.89,63.23h-5.31V5.95H9.86v58.68h37.12l2.03-10.19C41.19,54.44,47.99,63.23,26.89,63.23z M87.61,49.28
			c0,5.16-4.3,12.07-11.02,12.07c-3.83,0-5.7-2.3-5.7-8.16V34c0-4.47-0.39-7.26-10.71-7.26h-1.02v26.93
			c0.16,6.91,2.81,11.58,11.18,11.58c7.89,0,14.38-4.26,17.27-9.77v1.88c0,4.47,0.39,7.26,10.71,7.26h1.02V26.74H87.61V49.28z
			 M130.99,61c-8.36,0-10.24-10.33-10.24-15.42c0-5.02,0.23-17.93,7.42-17.93c6.41,0,6.8,6.63,7.42,7.68l5.94-1.26
			c-1.17-2.09-2.66-7.82-13.44-7.82c-12.19,0-19.38,6.21-19.38,19.54s8.67,18.84,19.46,18.84c6.49,0,12.11-3.28,15.71-7.75h-1.56
			C137.86,60.79,133.41,61,130.99,61z M172.64,25.83c-8.67,0-10.32,3.07-17.11,3.07l1.48,7.54c7.35,0,7.11-9.28,15.16-9.28
			c4.14,0,4.77,1.05,4.92,6.49c-0.23,5.23-2.11,9.14-15.16,9.14c-8.13,0-11.02,4.81-11.02,10.12c0,8.93,7.82,12.21,17.19,12.21
			c6.02,0,8.28-2.37,9.14-4.88c0.55,2.79,2.66,4.4,10.55,4.4h1.02V37.21C188.58,26.32,177.02,25.83,172.64,25.83z M177.09,55.49
			c0,4.26-2.5,8.23-6.72,8.23c-5.55,0-9.22-4.26-9.22-10.4c0-8.86,12.11-7.33,15.94-15.14V55.49z M235.63,54.93
			c0-12.21-28.6-12.28-28.6-22.05c0-3.63,0.94-5.65,8.05-5.65c8.91,0,10.86,9.63,16.88,9.63v-7.81c-2.34,0-9.46-3.07-16.96-3.07
			c-10,0-15.08,4.33-15.08,9.07c0,12.42,26.02,13.89,26.02,22.61c0,5.37-3.83,6.28-6.41,6.28c-14.46,0-14.07-12-20.55-12v10.12
			c6.17,0,7.27,3.14,20.55,3.14C227.26,65.19,235.63,63.44,235.63,54.93z M286.26,26.25c-10.71,0-19.38,6.21-19.38,19.54
			s8.67,18.84,19.46,18.84c6.49,0,12.11-3.28,15.71-7.75h-1.56c-4.45,3.91-8.91,4.12-11.33,4.12c-8.36,0-10.24-10.33-10.24-15.42
			v-0.49c0.94-3,6.02-3.28,9.77-3.28h14.54C303.22,34.07,297.05,26.25,286.26,26.25z M291.34,40.41c-5.55,0-10.47,0-12.43,2.79
			c0.16-5.86,1.17-15.56,7.42-15.56c5.94,0,7.27,6.35,7.42,12.77H291.34z M351.52,63.23h-5.31V5.95h-11.72v58.68h37.12l2.03-10.19
			C365.82,54.44,372.62,63.23,351.52,63.23z M404.03,25.83c-8.67,0-10.32,3.07-17.11,3.07l1.48,7.54c7.35,0,7.11-9.28,15.16-9.28
			c4.14,0,4.77,1.05,4.92,6.49c-0.23,5.23-2.11,9.14-15.16,9.14c-8.13,0-11.02,4.81-11.02,10.12c0,8.93,7.82,12.21,17.19,12.21
			c6.02,0,8.28-2.37,9.14-4.88c0.55,2.79,2.66,4.4,10.55,4.4h1.02V37.21C419.98,26.32,408.41,25.83,404.03,25.83z M408.49,55.49
			c0,4.26-2.5,8.23-6.72,8.23c-5.55,0-9.22-4.26-9.22-10.4c0-8.86,12.11-7.33,15.94-15.14V55.49z M431.39,64.63h1.02
			c10.32,0,10.71-2.79,10.71-7.26V26.74l-11.72,2.44V64.63z M440.22,18.09h-2.58l-3.36,6.14h2.58L440.22,18.09z M462.25,32.88
			c0-3.63,0.94-5.65,8.05-5.65c8.91,0,10.86,9.63,16.88,9.63v-7.81c-2.34,0-9.46-3.07-16.96-3.07c-10,0-15.08,4.33-15.08,9.07
			c0,12.42,26.02,13.89,26.02,22.61c0,5.37-3.83,6.28-6.41,6.28c-14.46,0-14.07-12-20.55-12v10.12c6.17,0,7.27,3.14,20.55,3.14
			c7.74,0,16.1-1.74,16.1-10.26C490.86,42.72,462.25,42.65,462.25,32.88z M205.35,92.07c-0.21,0-0.43,0.09-0.65,0.26
			c-0.59,0.49-1.21,0.74-1.87,0.74c-0.59,0-1.1-0.19-1.53-0.58c-0.44-0.39-0.65-0.93-0.65-1.63c0-0.6,0.2-1.09,0.6-1.45
			c0.4-0.36,0.91-0.54,1.53-0.54c0.26,0,0.51,0.03,0.72,0.09c0.22,0.06,0.47,0.16,0.75,0.31c0.17,0.11,0.36,0.17,0.57,0.17
			c0.32,0,0.59-0.12,0.81-0.37c0.22-0.25,0.33-0.52,0.33-0.82c0-0.36-0.14-0.65-0.43-0.88c-0.36-0.3-0.78-0.51-1.28-0.62
			c-0.49-0.11-0.99-0.17-1.5-0.17c-1.32,0-2.4,0.38-3.23,1.15c-0.83,0.77-1.26,1.8-1.28,3.11c0,0.95,0.21,1.76,0.62,2.44
			c0.42,0.68,0.97,1.2,1.66,1.56c0.69,0.36,1.43,0.54,2.23,0.54c0.55,0,1.11-0.09,1.69-0.27c0.58-0.18,1.12-0.48,1.63-0.89
			c0.15-0.15,0.26-0.31,0.31-0.47c0.06-0.16,0.09-0.31,0.09-0.44c0-0.32-0.11-0.6-0.33-0.85C205.91,92.19,205.65,92.07,205.35,92.07
			z M216.8,86.71c-0.28,0-0.53,0.08-0.74,0.23c-0.21,0.15-0.35,0.34-0.43,0.57c-0.66-0.62-1.44-0.94-2.33-0.94
			c-1.25,0-2.25,0.39-3.02,1.18c-0.77,0.78-1.15,1.85-1.15,3.19c0,1.34,0.39,2.42,1.18,3.22c0.78,0.8,1.81,1.21,3.08,1.21
			c0.89,0,1.64-0.27,2.24-0.82c0.15,0.55,0.54,0.82,1.16,0.82c0.38,0,0.69-0.1,0.92-0.31c0.24-0.21,0.35-0.47,0.35-0.79v-6.44
			c0-0.3-0.12-0.56-0.35-0.78C217.49,86.81,217.18,86.71,216.8,86.71z M215.04,92.45c-0.36,0.41-0.84,0.61-1.45,0.61
			c-0.59,0-1.06-0.2-1.43-0.61c-0.37-0.41-0.55-0.91-0.55-1.52c0-0.62,0.18-1.12,0.55-1.5c0.37-0.38,0.85-0.57,1.43-0.57
			c0.6,0,1.09,0.19,1.45,0.57c0.36,0.38,0.54,0.88,0.54,1.5C215.58,91.54,215.4,92.04,215.04,92.45z M227.2,90.32
			c-0.39-0.16-0.79-0.27-1.21-0.34c-0.42-0.07-0.78-0.12-1.11-0.16c-0.51-0.08-0.84-0.17-0.98-0.27c-0.14-0.1-0.21-0.22-0.21-0.35
			c0-0.3,0.36-0.45,1.08-0.45c0.36,0,0.71,0.04,1.06,0.11c0.35,0.08,0.64,0.19,0.86,0.34c0.15,0.08,0.31,0.11,0.48,0.11
			c0.32,0,0.59-0.11,0.79-0.34c0.21-0.23,0.31-0.48,0.31-0.77c0-0.32-0.13-0.6-0.4-0.85c-0.28-0.26-0.7-0.46-1.26-0.6
			c-0.56-0.13-1.15-0.2-1.77-0.2c-1.08,0-1.94,0.25-2.58,0.74c-0.64,0.49-0.96,1.16-0.96,2.01c0,0.55,0.13,0.98,0.38,1.3
			c0.26,0.32,0.57,0.56,0.95,0.72c0.38,0.16,0.76,0.27,1.15,0.33c0.39,0.06,0.7,0.09,0.95,0.11c0.62,0.06,1.02,0.16,1.19,0.3
			c0.17,0.14,0.26,0.31,0.26,0.5c0,0.32-0.35,0.48-1.05,0.48c-0.36,0-0.76-0.05-1.19-0.16c-0.44-0.1-0.82-0.23-1.16-0.38
			c-0.15-0.08-0.3-0.11-0.45-0.11c-0.32,0-0.59,0.13-0.81,0.4c-0.22,0.27-0.33,0.56-0.33,0.88c0,0.15,0.04,0.31,0.11,0.47
			c0.08,0.16,0.2,0.3,0.37,0.41c0.83,0.53,1.89,0.79,3.18,0.79c1.12,0,2.01-0.25,2.69-0.75c0.68-0.5,1.02-1.18,1.02-2.03
			c0-0.62-0.13-1.12-0.4-1.47C227.91,90.74,227.58,90.48,227.2,90.32z M238.92,86.71c-0.28,0-0.53,0.08-0.74,0.23
			c-0.21,0.15-0.35,0.34-0.43,0.57c-0.66-0.62-1.44-0.94-2.33-0.94c-1.25,0-2.25,0.39-3.02,1.18c-0.77,0.78-1.15,1.85-1.15,3.19
			c0,1.34,0.39,2.42,1.18,3.22c0.78,0.8,1.81,1.21,3.08,1.21c0.89,0,1.64-0.27,2.24-0.82c0.15,0.55,0.54,0.82,1.16,0.82
			c0.38,0,0.69-0.1,0.92-0.31c0.24-0.21,0.35-0.47,0.35-0.79v-6.44c0-0.3-0.12-0.56-0.35-0.78
			C239.61,86.81,239.3,86.71,238.92,86.71z M237.16,92.45c-0.36,0.41-0.84,0.61-1.45,0.61c-0.59,0-1.06-0.2-1.43-0.61
			c-0.37-0.41-0.55-0.91-0.55-1.52c0-0.62,0.18-1.12,0.55-1.5c0.37-0.38,0.85-0.57,1.43-0.57c0.6,0,1.09,0.19,1.45,0.57
			c0.36,0.38,0.54,0.88,0.54,1.5C237.7,91.54,237.52,92.04,237.16,92.45z M254.21,86.56c-0.53,0-1.04,0.11-1.53,0.33
			c-0.49,0.22-0.91,0.53-1.25,0.95c-0.57-0.85-1.49-1.28-2.78-1.28c-0.47,0-0.9,0.09-1.28,0.26c-0.38,0.17-0.68,0.4-0.91,0.68
			c-0.02-0.11-0.08-0.23-0.17-0.34c-0.23-0.3-0.56-0.45-0.99-0.45c-0.38,0-0.69,0.11-0.92,0.33c-0.24,0.22-0.35,0.48-0.35,0.78v6.44
			c0,0.32,0.12,0.59,0.37,0.79c0.25,0.21,0.55,0.31,0.91,0.31c0.34,0,0.63-0.11,0.86-0.33c0.24-0.22,0.35-0.49,0.35-0.81v-4.03
			c0.09-0.36,0.28-0.68,0.57-0.95c0.28-0.27,0.64-0.41,1.08-0.41c0.45,0,0.8,0.15,1.05,0.45c0.25,0.3,0.37,0.8,0.37,1.5v3.46
			c0,0.32,0.12,0.59,0.35,0.79c0.24,0.21,0.53,0.31,0.89,0.31c0.36,0,0.66-0.1,0.89-0.3c0.24-0.2,0.35-0.45,0.35-0.75v-4.08
			c0.09-0.38,0.28-0.7,0.55-0.98c0.27-0.27,0.64-0.41,1.09-0.41c0.45,0,0.8,0.15,1.05,0.45c0.25,0.3,0.37,0.8,0.37,1.5v3.46
			c0,0.32,0.12,0.59,0.35,0.79c0.24,0.21,0.53,0.31,0.89,0.31c0.36,0,0.66-0.1,0.89-0.3c0.24-0.2,0.35-0.45,0.35-0.75v-3.83
			c0-1.36-0.31-2.35-0.92-2.98C256.1,86.88,255.27,86.56,254.21,86.56z M263.54,91.53h4.71c0.87,0,1.3-0.49,1.3-1.47
			c0-0.59-0.15-1.14-0.45-1.67c-0.3-0.53-0.76-0.96-1.36-1.3c-0.61-0.34-1.37-0.51-2.3-0.51c-1.3,0-2.39,0.4-3.25,1.19
			c-0.86,0.79-1.29,1.89-1.29,3.29c0,1.34,0.44,2.4,1.32,3.16c0.88,0.77,1.96,1.15,3.25,1.15c0.62,0,1.26-0.09,1.91-0.26
			c0.65-0.17,1.15-0.4,1.49-0.68c0.36-0.3,0.54-0.62,0.54-0.96c0-0.28-0.1-0.53-0.3-0.74c-0.2-0.21-0.44-0.31-0.72-0.31
			c-0.21,0-0.41,0.07-0.6,0.2c-0.28,0.21-0.61,0.36-0.99,0.47c-0.38,0.1-0.76,0.16-1.13,0.16c-0.61,0-1.15-0.13-1.63-0.38
			s-0.72-0.6-0.72-1.04C263.31,91.62,263.39,91.53,263.54,91.53z M263.89,88.9c0.37-0.26,0.85-0.38,1.43-0.38
			c0.55,0,1,0.12,1.35,0.35c0.35,0.24,0.52,0.5,0.52,0.78c0,0.11-0.03,0.18-0.1,0.2c-0.07,0.02-0.12,0.03-0.16,0.03h-3.37
			c-0.15,0-0.23-0.07-0.23-0.2C263.34,89.42,263.52,89.16,263.89,88.9z M277.74,86.56c-1.04,0-1.81,0.33-2.33,0.99
			c-0.08-0.25-0.22-0.45-0.43-0.61c-0.21-0.16-0.46-0.24-0.77-0.24c-0.38,0-0.69,0.11-0.92,0.33c-0.24,0.22-0.35,0.48-0.35,0.78
			v6.35c0,0.32,0.12,0.59,0.37,0.79c0.25,0.21,0.55,0.31,0.91,0.31c0.34,0,0.63-0.11,0.86-0.33c0.24-0.22,0.35-0.49,0.35-0.81v-3.8
			c0.08-0.4,0.27-0.75,0.58-1.05c0.31-0.3,0.7-0.45,1.18-0.45c0.45,0,0.84,0.15,1.15,0.45c0.31,0.3,0.47,0.8,0.47,1.5v3.46
			c0,0.32,0.12,0.59,0.35,0.79c0.24,0.21,0.53,0.31,0.89,0.31c0.36,0,0.66-0.1,0.89-0.3c0.24-0.2,0.35-0.45,0.35-0.75v-3.83
			c0-1.36-0.33-2.35-0.99-2.98C279.66,86.88,278.8,86.56,277.74,86.56z M289.88,92.83c-0.06,0-0.2,0.02-0.43,0.07
			c-0.23,0.05-0.38,0.07-0.45,0.07c-0.19,0-0.35-0.07-0.47-0.2c-0.12-0.13-0.18-0.37-0.18-0.71V89.4c0-0.19,0.09-0.28,0.28-0.28
			h1.02c0.34,0,0.62-0.1,0.84-0.31c0.22-0.21,0.33-0.47,0.33-0.79c0-0.32-0.11-0.6-0.33-0.82c-0.22-0.23-0.49-0.34-0.81-0.34h-1.05
			c-0.19,0-0.28-0.09-0.28-0.28v-2.1c0-0.34-0.12-0.62-0.35-0.84c-0.24-0.22-0.53-0.33-0.89-0.33c-0.36,0-0.65,0.11-0.88,0.34
			c-0.23,0.23-0.34,0.5-0.34,0.82v2.1c0,0.19-0.09,0.28-0.28,0.28h-0.43c-0.34,0-0.6,0.11-0.77,0.33c-0.17,0.22-0.26,0.5-0.26,0.84
			c0,0.32,0.09,0.59,0.26,0.79c0.17,0.21,0.43,0.31,0.77,0.31h0.43c0.19,0,0.28,0.09,0.28,0.28v3.06c0,0.98,0.26,1.71,0.79,2.18
			c0.53,0.47,1.2,0.71,2.01,0.71c0.23,0,0.45-0.02,0.68-0.06c0.23-0.04,0.46-0.09,0.71-0.17c0.3-0.09,0.52-0.25,0.67-0.45
			c0.14-0.21,0.21-0.43,0.21-0.68c0-0.32-0.1-0.6-0.31-0.82C290.44,92.94,290.18,92.83,289.88,92.83z M300.25,87.12
			c-0.67-0.37-1.42-0.55-2.25-0.55c-0.81,0-1.56,0.18-2.24,0.55c-0.68,0.37-1.22,0.88-1.63,1.53c-0.41,0.65-0.61,1.41-0.61,2.28
			c0,0.85,0.2,1.61,0.61,2.28c0.41,0.67,0.95,1.2,1.63,1.57c0.68,0.38,1.43,0.57,2.24,0.57c0.83,0,1.58-0.19,2.25-0.57
			c0.67-0.38,1.21-0.9,1.6-1.57c0.4-0.67,0.6-1.43,0.6-2.28c0-0.87-0.2-1.63-0.6-2.28C301.45,88,300.92,87.49,300.25,87.12z
			 M299.42,92.45c-0.37,0.41-0.85,0.61-1.43,0.61c-0.57,0-1.04-0.2-1.43-0.61c-0.39-0.41-0.58-0.91-0.58-1.52
			c0-0.62,0.19-1.12,0.58-1.5c0.39-0.38,0.86-0.57,1.43-0.57c0.59,0,1.06,0.19,1.43,0.57c0.37,0.38,0.55,0.88,0.55,1.5
			C299.98,91.54,299.79,92.04,299.42,92.45z"/>
	</g>
</g>
</svg>
