<?xml version="1.0" encoding="utf-8"?>
<!-- Generator: Adobe Illustrator 21.0.0, SVG Export Plug-In . SVG Version: 6.00 Build 0)  -->
<svg version="1.1" id="Camada_1" xmlns="http://www.w3.org/2000/svg" xmlns:xlink="http://www.w3.org/1999/xlink" x="0px" y="0px"
	 viewBox="0 0 952.8 338.7" style="enable-background:new 0 0 952.8 338.7;" xml:space="preserve">
<style type="text/css">
	.st0{fill:#FEECD6;}
	.st1{fill:#32BCAD;}
</style>
<g>
	<path class="st0" d="M591.1,262.2c-2.1,0-3.8-1.7-3.8-3.8V140.7c0-23.7,19.3-43,43-43l34.8,0c23.7,0,42.9,19.3,42.9,43v25
		c0,23.7-19.3,43-43,43h-49.1c-2.1,0-3.8-1.7-3.8-3.8s1.7-3.8,3.8-3.8h49.1c19.5,0,35.4-15.9,35.4-35.4v-25
		c0-19.4-15.8-35.3-35.3-35.3l-34.7,0c-19.5,0-35.4,15.9-35.4,35.4v117.7C594.9,260.5,593.2,262.2,591.1,262.2z"/>
	<path class="st0" d="M745,209.3c-2.1,0-3.8-1.7-3.8-3.8v-87.9c0-6.8-5.5-12.3-12.3-12.3h-15.1c-2.1,0-3.8-1.7-3.8-3.8
		c0-2.1,1.7-3.8,3.8-3.8h15.1c11,0,19.9,8.9,19.9,19.9v87.9C748.8,207.6,747.1,209.3,745,209.3z"/>
	<path class="st1" d="M741.8,87.8l-6.8-6.8c-1.7-1.7-1.7-4.4,0-6.1c0,0,0,0,0,0l6.8-6.8c1.7-1.7,4.5-1.7,6.1,0l6.8,6.8
		c1.7,1.7,1.7,4.4,0,6.1c0,0,0,0,0,0l-6.9,6.8C746.2,89.5,743.4,89.5,741.8,87.8C741.7,87.8,741.7,87.8,741.8,87.8"/>
	<path class="st0" d="M852.6,152c-3.9,0-7.9-1.5-10.9-4.5l-35-35c-4.8-4.7-11.1-7.4-17.8-7.4c0,0,0,0,0,0h-14.9
		c-2.1,0-3.8-1.7-3.8-3.8c0-2.1,1.7-3.8,3.8-3.8h14.9c0,0,0,0,0,0c8.8,0,17,3.4,23.2,9.6l35,35c3,3,8,3,11,0c0,0,0,0,0,0l34.8-34.8
		c6.2-6.2,14.4-9.6,23.2-9.6c0,0,0,0,0,0h12.2c2.1,0,3.8,1.7,3.8,3.8c0,2.1-1.7,3.8-3.8,3.8h-12.2c0,0,0,0,0,0
		c-6.7,0-13,2.6-17.8,7.4l-34.8,34.8c0,0,0,0,0,0C860.4,150.5,856.5,152,852.6,152z"/>
	<path class="st0" d="M788.9,208.5C788.9,208.5,788.9,208.5,788.9,208.5h-15c-2.1,0-3.8-1.7-3.8-3.8c0-2.1,1.7-3.8,3.8-3.8h14.9
		c0,0,0,0,0,0c6.7,0,13-2.6,17.8-7.4l35-35c6-6,15.8-6,21.8,0l34.8,34.8c4.8,4.7,11.1,7.4,17.8,7.4c0,0,0,0,0,0h12.2
		c2.1,0,3.8,1.7,3.8,3.8c0,2.1-1.7,3.8-3.8,3.8h-12.2c0,0,0,0,0,0c-8.8,0-17-3.4-23.2-9.6l-34.8-34.8c-3-3-8-3-11,0l-35,35
		C805.9,205.1,797.7,208.5,788.9,208.5z"/>
	<path class="st1" d="M502,227c-7.4,0-14.6-2.9-19.9-8.2l-28.7-28.7c-2.1-2-5.4-2-7.5,0l-28.8,28.8c-5.3,5.3-12.4,8.2-19.9,8.2h-5.6
		l36.4,36.4c11.4,11.3,29.7,11.3,41.1,0l36.4-36.4L502,227z"/>
	<path class="st1" d="M397.3,125.6c7.5,0,14.6,2.9,19.9,8.2l28.8,28.8c2.1,2.1,5.5,2.1,7.5,0l28.7-28.7c5.3-5.3,12.4-8.3,19.9-8.2
		h3.5L469,89.2c-11.3-11.3-29.7-11.3-41.1,0c0,0,0,0,0,0l-36.3,36.3H397.3z"/>
	<path class="st1" d="M535.6,155.8l-22-22c-0.5,0.2-1,0.3-1.6,0.3h-10c-5.2,0-10.2,2.1-13.9,5.8l-28.7,28.7
		c-5.4,5.4-14.1,5.4-19.5,0l-28.8-28.8c-3.7-3.7-8.7-5.7-13.9-5.8H385c-0.5,0-1-0.1-1.5-0.3l-22.2,22.1c-11.3,11.4-11.3,29.7,0,41.1
		l22.1,22.1c0.5-0.2,1-0.3,1.5-0.3h12.3c5.2,0,10.2-2.1,13.9-5.8l28.8-28.8c5.2-5.2,14.3-5.2,19.5,0l28.7,28.7
		c3.7,3.7,8.7,5.7,13.9,5.8h10c0.5,0,1.1,0.1,1.6,0.3l22-22C546.9,185.5,546.9,167.1,535.6,155.8
		C535.6,155.8,535.6,155.8,535.6,155.8"/>
	<path class="st0" d="M621,248.3c-1.8,0.1-3.6,0.4-5.4,0.8v7.2c1.3,0.5,2.8,0.7,4.2,0.7c3.6,0,5.3-1.2,5.3-4.4
		C625.1,249.7,623.7,248.3,621,248.3 M614.4,261.7v-14.2h1l0.1,0.6c1.8-0.5,3.7-0.8,5.6-0.9c1.3-0.1,2.6,0.3,3.7,1.1
		c1.2,1,1.6,2.6,1.6,4.4c0,1.8-0.6,3.6-2.3,4.6c-1.3,0.6-2.7,1-4.2,0.9c-1.5,0-2.9-0.2-4.3-0.7v4.2L614.4,261.7z"/>
	<path class="st0" d="M635.4,248.3c-3.6,0-5.2,1.1-5.2,4.3c0,3.1,1.6,4.4,5.2,4.4s5.2-1.1,5.2-4.3
		C640.6,249.7,639,248.3,635.4,248.3 M640,257c-1.2,0.9-2.8,1.1-4.6,1.1s-3.5-0.3-4.6-1.1c-1.3-0.9-1.9-2.4-1.9-4.4
		c0-1.9,0.5-3.4,1.9-4.4c1.2-0.8,2.8-1.1,4.6-1.1s3.4,0.3,4.6,1.1c1.3,0.9,1.8,2.5,1.8,4.4S641.4,256.1,640,257"/>
	<path class="st0" d="M657.1,257.9l-4-8.6H653l-4,8.6h-1.1l-4.2-10.4h1.3l3.6,8.7h0.1l3.9-8.7h1.1l4,8.7h0.1l3.5-8.7h1.3l-4.3,10.4
		H657.1z"/>
	<path class="st0" d="M670.2,248.3c-3.3,0-4.5,1.5-4.7,3.6h9.3C674.8,249.6,673.5,248.3,670.2,248.3 M670.1,258.2
		c-2,0-3.3-0.3-4.3-1.2c-1.2-1-1.6-2.6-1.6-4.3s0.6-3.4,1.9-4.4c1.2-0.8,2.6-1.1,4-1c1.5-0.1,2.9,0.3,4.2,1c1.5,1,1.8,2.8,1.8,4.8
		h-10.6c0,2.1,0.7,4,4.8,4c1.8,0,3.6-0.3,5.4-0.6v1.1C673.8,257.9,672,258.1,670.1,258.2"/>
	<path class="st0" d="M679.6,257.9v-10.4h1l0.1,0.6c2.2-0.6,3.2-0.9,5.2-0.9h0.1v1.2h-0.3c-1.6,0-2.6,0.2-4.9,0.8v8.7L679.6,257.9z"
		/>
	<path class="st0" d="M693,248.3c-3.3,0-4.5,1.5-4.7,3.6h9.3C697.6,249.6,696.4,248.3,693,248.3 M693,258.2c-2,0-3.3-0.3-4.3-1.2
		c-1.2-1-1.6-2.6-1.6-4.3s0.6-3.4,1.9-4.4c1.2-0.8,2.6-1.1,4-1c1.5-0.1,2.9,0.3,4.2,1c1.5,1,1.8,2.8,1.8,4.8h-10.7
		c0,2.1,0.7,4,4.8,4c1.8,0,3.6-0.2,5.4-0.6v1.1C696.7,257.9,694.9,258.1,693,258.2"/>
	<path class="st0" d="M712.3,249c-1.3-0.5-2.8-0.7-4.2-0.7c-3.6,0-5.3,1.2-5.3,4.4c0,3,1.4,4.3,4.1,4.3c1.8-0.1,3.6-0.4,5.4-0.8V249
		z M712.5,257.9l-0.1-0.6c-1.8,0.5-3.7,0.8-5.6,0.9c-1.3,0.1-2.6-0.3-3.7-1.1c-1.2-1-1.6-2.6-1.6-4.4c0-1.9,0.6-3.6,2.3-4.5
		c1.3-0.7,2.7-1,4.2-0.9c1.5,0,2.9,0.2,4.3,0.7v-4.8h1.2v14.8L712.5,257.9z"/>
	<path class="st0" d="M731.3,248.3c-1.8,0.1-3.6,0.4-5.4,0.8v7.2c1.3,0.5,2.8,0.7,4.2,0.7c3.6,0,5.3-1.2,5.3-4.4
		C735.4,249.7,734,248.3,731.3,248.3 M734.4,257.2c-1.3,0.6-2.7,1-4.2,0.9c-1.6,0-3.1-0.3-4.6-0.8l-0.1,0.5h-0.8v-14.8h1.2v4.9
		c1.8-0.5,3.6-0.7,5.5-0.9c1.3-0.1,2.6,0.3,3.7,1.1c1.2,1,1.6,2.6,1.6,4.4C736.7,254.4,736.1,256.3,734.4,257.2"/>
	<path class="st0" d="M738.3,261.8v-1.1c0.6,0.1,1.2,0.1,1.5,0.1c1.5,0,2.4-0.4,3.2-2.1l0.4-0.8l-5.5-10.4h1.4l4.6,9h0.1l4.4-9h1.4
		l-5.8,11.7c-1.1,2.1-2.2,2.8-4.3,2.8C739.3,261.9,738.8,261.9,738.3,261.8"/>
	<path class="st0" d="M766.7,251.9h-4v3.6h4c2.8,0,3.8-0.3,3.8-1.8C770.5,252.1,769.1,251.9,766.7,251.9 M765.9,246.1h-3.3v3.7h3.3
		c2.7,0,3.8-0.3,3.8-1.9C769.8,246.3,768.4,246.1,765.9,246.1 M772.2,256.9c-1.5,0.9-3.3,1-6.5,1h-6.1v-14.1h6c2.8,0,4.5,0,6,0.9
		c1,0.6,1.5,1.7,1.4,2.8c0,1.5-0.6,2.5-2.2,3.1v0.1c1.8,0.4,3,1.3,3,3.3C773.8,255.2,773.2,256.3,772.2,256.9"/>
	<path class="st0" d="M786,253.5c-1.2-0.1-2.4-0.2-3.7-0.2c-2.1,0-2.9,0.4-2.9,1.4c0,1,0.6,1.4,2.2,1.4c1.5,0,2.9-0.3,4.4-0.6V253.5
		z M786.6,257.9l-0.1-0.6c-1.8,0.5-3.7,0.8-5.6,0.9c-1.1,0.1-2.2-0.2-3.1-0.8c-1.4-1.1-1.5-3.2-0.4-4.5c0.3-0.3,0.6-0.6,1-0.8
		c1.1-0.5,2.6-0.6,3.9-0.6c1.1,0,2.5,0.1,3.8,0.1v-0.2c0-1.6-1.1-2.2-4-2.2c-1.1,0-2.5,0.1-3.8,0.2v-2.1c1.5-0.1,3.1-0.2,4.5-0.2
		c1.8,0,3.7,0.1,4.8,1c1.2,0.8,1.4,2,1.4,3.6v6.1L786.6,257.9z"/>
	<path class="st0" d="M802.4,257.9v-5.7c0-1.9-1-2.6-2.7-2.6c-1.4,0.1-2.9,0.3-4.2,0.7v7.6h-2.9v-10.4h2.4l0.1,0.7
		c1.8-0.5,3.7-0.8,5.5-0.9c1.3-0.1,2.5,0.3,3.6,1.1c0.8,0.7,1.1,1.8,1.1,3.2v6.3H802.4z"/>
	<path class="st0" d="M813.5,258.2c-1.3,0-2.8-0.2-3.9-1.1c-1.3-1-1.6-2.6-1.6-4.4c0-1.6,0.5-3.4,2.1-4.4c1.3-0.8,2.9-1,4.6-1
		c1.2,0,2.4,0.1,3.6,0.2v2.2c-1-0.1-2.3-0.2-3.3-0.2c-2.8,0-4.1,0.9-4.1,3.2c0,2.2,1,3.2,3.2,3.2c1.5,0,2.9-0.2,4.4-0.5v2.1
		C816.9,257.9,815.2,258.1,813.5,258.2"/>
	<path class="st0" d="M827.1,249.4c-2.8,0-4,0.9-4,3.2s1.2,3.4,4,3.4s3.9-0.8,3.9-3.2C831,250.4,829.9,249.4,827.1,249.4
		 M832.1,257.1c-1.3,0.9-2.9,1.1-5,1.1s-3.7-0.2-5-1.1c-1.4-0.9-2-2.5-2-4.4c0-1.9,0.5-3.5,2-4.4c1.3-0.8,2.9-1.1,5-1.1
		s3.7,0.2,5,1.1c1.4,0.9,1.9,2.5,1.9,4.4S833.5,256.1,832.1,257.1"/>
	<path class="st0" d="M850.7,258.2c-1.7,0-3.6-0.3-5.1-1.5c-1.7-1.4-2.2-3.6-2.2-5.9c0-2.1,0.7-4.5,2.9-6c1.7-1.1,3.8-1.3,6-1.3
		c1.6,0,3.2,0.1,4.9,0.2v2.5c-1.5-0.1-3.4-0.2-4.8-0.2c-4,0-5.7,1.5-5.7,4.8s1.6,4.8,4.5,4.8c2.1-0.1,4.2-0.4,6.3-0.8v2.5
		C855.3,257.8,853,258.1,850.7,258.2"/>
	<path class="st0" d="M866,249c-2.4,0-3.3,0.9-3.5,2.4h7C869.4,249.8,868.4,249,866,249 M865.6,258.1c-1.7,0-3.2-0.2-4.4-1.2
		c-1.2-0.9-1.7-2.6-1.7-4.3c0-1.6,0.5-3.4,2-4.4c1.3-0.9,2.9-1.1,4.5-1.1c1.5,0,3.2,0.2,4.5,1c1.7,1.2,1.8,3,1.8,5.1h-9.9
		c0.1,1.6,0.9,2.6,3.8,2.6c1.9,0,3.7-0.2,5.5-0.5v2C869.8,257.8,867.7,258.1,865.6,258.1"/>
	<path class="st0" d="M885.3,257.9v-5.7c0-1.9-1-2.6-2.7-2.6c-1.4,0.1-2.9,0.3-4.2,0.7v7.6h-2.9v-10.4h2.4l0.1,0.7
		c1.8-0.5,3.7-0.8,5.5-0.9c1.3-0.1,2.5,0.3,3.6,1.1c0.8,0.7,1.1,1.8,1.1,3.2v6.3H885.3z"/>
	<path class="st0" d="M896.4,258.2c-1.4,0-2.7-0.4-3.4-1.5c-0.6-0.9-0.8-2-0.8-3.1v-3.9h-2.1v-2.2h2.1l0.3-3.1h2.6v3.1h4.1v2.2h-4.1
		v3.3c0,0.7,0.1,1.3,0.3,2c0.3,0.7,1,1,1.9,1c0.7,0,1.4-0.1,2.1-0.2v2.1C898.4,258,897.4,258.1,896.4,258.2"/>
	<path class="st0" d="M902,257.9v-10.4h2.4l0.1,0.7c1.7-0.6,3.4-0.9,5.1-0.9c0.1,0,0.2,0,0.4,0v2.5c-0.3,0-0.7,0-1,0
		c-1.4,0-2.7,0.2-4.1,0.5v7.7L902,257.9z"/>
	<path class="st0" d="M920.6,253.5c-1.2-0.1-2.4-0.2-3.7-0.2c-2.1,0-2.9,0.4-2.9,1.4c0,1,0.6,1.4,2.2,1.4c1.5,0,2.9-0.3,4.4-0.6
		V253.5z M921.2,257.9l-0.1-0.6c-1.8,0.5-3.7,0.8-5.6,0.9c-1.1,0.1-2.2-0.2-3.1-0.8c-0.8-0.6-1.2-1.5-1.2-2.5
		c-0.1-1.2,0.6-2.3,1.8-2.8c1.1-0.5,2.5-0.6,3.9-0.6c1.1,0,2.6,0.1,3.8,0.1v-0.2c0-1.6-1.1-2.2-4-2.2c-1.1,0-2.5,0.1-3.8,0.2v-2.1
		c1.5-0.1,3.1-0.2,4.5-0.2c1.8,0,3.7,0.1,4.8,1s1.4,2,1.4,3.6v6.1L921.2,257.9z"/>
	<path class="st0" d="M927.2,243.1h2.9v14.8h-2.9V243.1z"/>
</g>
<g>
	<path class="st0" d="M48.2,197c-6.6,0-12.1-2.2-16.5-6.6c-4.4-4.4-6.6-9.9-6.6-16.5c0-6.6,2.2-12.1,6.6-16.5
		c4.4-4.4,9.9-6.6,16.5-6.6c4.3,0,8.2,1,11.7,3.1c3.5,2.1,6,4.9,7.7,8.4l-6.4,3.7c-1.1-2.3-2.8-4.2-5.1-5.6
		c-2.3-1.4-4.9-2.1-7.9-2.1c-4.4,0-8.1,1.5-11,4.5c-3,3-4.4,6.7-4.4,11.2c0,4.4,1.5,8.1,4.4,11.1c3,3,6.6,4.5,11,4.5
		c2.9,0,5.6-0.7,7.9-2.1c2.3-1.4,4.1-3.2,5.4-5.6l6.5,3.8c-1.9,3.5-4.6,6.2-8.1,8.3S52.5,197,48.2,197z"/>
	<path class="st0" d="M112,190.3c-4.5,4.5-10,6.7-16.4,6.7c-6.4,0-11.9-2.2-16.4-6.7c-4.5-4.5-6.7-9.9-6.7-16.4s2.2-12,6.7-16.4
		c4.5-4.5,9.9-6.7,16.4-6.7c6.4,0,11.9,2.2,16.4,6.7c4.5,4.5,6.8,9.9,6.8,16.4S116.5,185.8,112,190.3z M95.6,189.5
		c4.4,0,8.1-1.5,11.1-4.5c3-3,4.5-6.7,4.5-11.2c0-4.5-1.5-8.2-4.5-11.2c-3-3-6.7-4.5-11.1-4.5c-4.3,0-8,1.5-11,4.5
		c-3,3-4.5,6.7-4.5,11.2c0,4.5,1.5,8.2,4.5,11.2C87.6,188,91.2,189.5,95.6,189.5z"/>
	<path class="st0" d="M152.1,150.7c6.2,0,11.4,2.2,15.7,6.7c4.3,4.5,6.5,10,6.5,16.4c0,6.4-2.2,11.9-6.5,16.4
		c-4.3,4.5-9.6,6.7-15.7,6.7c-7.3,0-12.8-2.9-16.6-8.7v25.1h-7.6v-61.5h7.6v7.6C139.3,153.6,144.8,150.7,152.1,150.7z M151.1,189.6
		c4.4,0,8.1-1.5,11.1-4.5c3-3,4.5-6.8,4.5-11.2c0-4.5-1.5-8.2-4.5-11.2c-3-3-6.7-4.5-11.1-4.5c-4.5,0-8.2,1.5-11.2,4.5
		c-3,3-4.5,6.8-4.5,11.2c0,4.5,1.5,8.2,4.5,11.2C143,188.1,146.7,189.6,151.1,189.6z"/>
	<path class="st0" d="M187.4,143.9c-1.5,0-2.7-0.5-3.7-1.5c-1-1-1.5-2.2-1.5-3.6s0.5-2.6,1.5-3.6c1-1,2.2-1.5,3.7-1.5
		c1.4,0,2.6,0.5,3.6,1.5c1,1,1.5,2.2,1.5,3.6s-0.5,2.6-1.5,3.6C190,143.4,188.8,143.9,187.4,143.9z M183.5,195.8v-44h7.6v44H183.5z"
		/>
	<path class="st0" d="M239.2,151.9h7.6v44h-7.6v-7.6c-3.8,5.8-9.3,8.7-16.6,8.7c-6.2,0-11.4-2.2-15.7-6.7c-4.3-4.5-6.5-9.9-6.5-16.4
		c0-6.4,2.2-11.9,6.5-16.4c4.3-4.5,9.6-6.7,15.7-6.7c7.3,0,12.8,2.9,16.6,8.7V151.9z M223.6,189.6c4.5,0,8.2-1.5,11.2-4.5
		c3-3,4.5-6.8,4.5-11.2c0-4.5-1.5-8.2-4.5-11.2c-3-3-6.7-4.5-11.2-4.5c-4.4,0-8.1,1.5-11.1,4.5c-3,3-4.5,6.8-4.5,11.2
		c0,4.5,1.5,8.2,4.5,11.2C215.5,188.1,219.2,189.6,223.6,189.6z"/>
	<path class="st0" d="M266.1,159.2c2.5-5.5,7.1-8.2,13.7-8.2v8c-3.8-0.2-7,0.8-9.7,3c-2.7,2.2-4,5.7-4,10.5v23.3h-7.6v-44h7.6V159.2
		z"/>
</g>
</svg>
