<?xml version="1.0" encoding="utf-8"?>
<!-- Generator: Adobe Illustrator 21.0.0, SVG Export Plug-In . SVG Version: 6.00 Build 0)  -->
<svg version="1.1" id="Camada_1" xmlns="http://www.w3.org/2000/svg" xmlns:xlink="http://www.w3.org/1999/xlink" x="0px" y="0px"
	 viewBox="0 0 952.8 338.7" style="enable-background:new 0 0 952.8 338.7;" xml:space="preserve">
<style type="text/css">
	.st0{fill:#FEECD6;}
	.st1{fill:#32BCAD;}
</style>
<g>
	<path class="st0" d="M392.8,315.1c-3.3,0-6-2.7-6-6V124.7c0-37.1,30.2-67.4,67.4-67.4h54.5c37.1,0,67.2,30.2,67.2,67.4v39.2
		c0,37.1-30.2,67.4-67.4,67.4h-76.9c-3.3,0-6-2.7-6-6c0-3.3,2.7-6,6-6h76.9c30.6,0,55.5-24.9,55.5-55.5v-39.2
		c0-30.4-24.8-55.3-55.3-55.3h-54.4c-30.6,0-55.5,24.9-55.5,55.5v184.4C398.8,312.4,396.1,315.1,392.8,315.1z"/>
	<path class="st0" d="M634,232.2c-3.3,0-6-2.7-6-6V88.6c0-10.7-8.6-19.3-19.3-19.3h-23.7c-3.3,0-6-2.7-6-6c0-3.3,2.7-6,6-6h23.7
		c17.2,0,31.2,13.9,31.2,31.2v137.7C639.9,229.6,637.2,232.2,634,232.2z"/>
	<path class="st1" d="M628.9,41.9l-10.7-10.7c-2.7-2.7-2.7-6.9,0-9.6l0,0L628.9,11c2.7-2.7,7.1-2.7,9.6,0l10.7,10.7
		c2.7,2.7,2.7,6.9,0,9.6l0,0l-10.8,10.7C635.8,44.5,631.4,44.5,628.9,41.9C628.8,41.9,628.8,41.9,628.9,41.9"/>
	<path class="st0" d="M802.5,142.5c-6.1,0-12.4-2.4-17.1-7.1l-54.8-54.8c-7.5-7.4-17.4-11.6-27.9-11.6l0,0h-23.3c-3.3,0-6-2.7-6-6
		c0-3.3,2.7-6,6-6h23.3l0,0c13.8,0,26.6,5.3,36.3,15l54.8,54.8c4.7,4.7,12.5,4.7,17.2,0l0,0l54.5-54.5c9.7-9.7,22.6-15,36.3-15l0,0
		h19.1c3.3,0,6,2.7,6,6c0,3.3-2.7,6-6,6H902l0,0c-10.5,0-20.4,4.1-27.9,11.6l-54.5,54.5l0,0C814.8,140.1,808.6,142.5,802.5,142.5z"
		/>
	<path class="st0" d="M702.7,231L702.7,231h-23.5c-3.3,0-6-2.7-6-6c0-3.3,2.7-6,6-6h23.3l0,0c10.5,0,20.4-4.1,27.9-11.6l54.8-54.8
		c9.4-9.4,24.8-9.4,34.2,0l54.5,54.5c7.5,7.4,17.4,11.6,27.9,11.6l0,0H921c3.3,0,6,2.7,6,6c0,3.3-2.7,6-6,6h-19.1l0,0
		c-13.8,0-26.6-5.3-36.3-15L811,161.1c-4.7-4.7-12.5-4.7-17.2,0l-54.8,54.8C729.4,225.6,716.5,231,702.7,231z"/>
	<path class="st1" d="M253.2,260c-11.6,0-22.9-4.5-31.2-12.8l-45-45c-3.3-3.1-8.5-3.1-11.8,0l-45.1,45.1
		c-8.3,8.3-19.4,12.8-31.2,12.8h-8.8l57,57c17.9,17.7,46.5,17.7,64.4,0l57-57L253.2,260z"/>
	<path class="st1" d="M89.2,101.1c11.8,0,22.9,4.5,31.2,12.8l45.1,45.1c3.3,3.3,8.6,3.3,11.8,0l45-45c8.3-8.3,19.4-13,31.2-12.8h5.5
		l-57.3-57.2c-17.7-17.7-46.5-17.7-64.4,0l0,0l-56.9,56.9h8.9V101.1z"/>
	<path class="st1" d="M305.9,148.4l-34.5-34.5c-0.8,0.3-1.6,0.5-2.5,0.5h-15.7c-8.1,0-16,3.3-21.8,9.1l-45,45
		c-8.5,8.5-22.1,8.5-30.6,0l-45.1-45.1c-5.8-5.8-13.6-8.9-21.8-9.1H69.9c-0.8,0-1.6-0.2-2.4-0.5l-34.8,34.6
		c-17.7,17.9-17.7,46.5,0,64.4l34.6,34.6c0.8-0.3,1.6-0.5,2.4-0.5H89c8.1,0,16-3.3,21.8-9.1l45.1-45.1c8.1-8.1,22.4-8.1,30.6,0
		l45,45c5.8,5.8,13.6,8.9,21.8,9.1h15.7c0.8,0,1.7,0.2,2.5,0.5l34.5-34.5C323.6,194.9,323.6,166.1,305.9,148.4L305.9,148.4"/>
	<path class="st0" d="M439.7,293.3c-2.8,0.2-5.6,0.6-8.5,1.3v11.3c2,0.8,4.4,1.1,6.6,1.1c5.6,0,8.3-1.9,8.3-6.9
		C446.1,295.5,443.9,293.3,439.7,293.3 M429.3,314.3v-22.2h1.6l0.2,0.9c2.8-0.8,5.8-1.3,8.8-1.4c2-0.2,4.1,0.5,5.8,1.7
		c1.9,1.6,2.5,4.1,2.5,6.9c0,2.8-0.9,5.6-3.6,7.2c-2,0.9-4.2,1.6-6.6,1.4c-2.4,0-4.5-0.3-6.7-1.1v6.6H429.3z"/>
	<path class="st0" d="M462.2,293.3c-5.6,0-8.1,1.7-8.1,6.7c0,4.9,2.5,6.9,8.1,6.9c5.6,0,8.1-1.7,8.1-6.7
		C470.4,295.5,467.9,293.3,462.2,293.3 M469.4,307c-1.9,1.4-4.4,1.7-7.2,1.7c-2.8,0-5.5-0.5-7.2-1.7c-2-1.4-3-3.8-3-6.9
		c0-3,0.8-5.3,3-6.9c1.9-1.3,4.4-1.7,7.2-1.7c2.8,0,5.3,0.5,7.2,1.7c2,1.4,2.8,3.9,2.8,6.9S471.6,305.6,469.4,307"/>
	<path class="st0" d="M496.2,308.4l-6.3-13.5h-0.2l-6.3,13.5h-1.7l-6.6-16.3h2l5.6,13.6h0.2l6.1-13.6h1.7l6.3,13.6h0.2l5.5-13.6h2
		l-6.7,16.3L496.2,308.4L496.2,308.4z"/>
	<path class="st0" d="M516.8,293.3c-5.2,0-7.1,2.4-7.4,5.6H524C524,295.4,521.9,293.3,516.8,293.3 M516.6,308.8
		c-3.1,0-5.2-0.5-6.7-1.9c-1.9-1.6-2.5-4.1-2.5-6.7s0.9-5.3,3-6.9c1.9-1.3,4.1-1.7,6.3-1.6c2.4-0.2,4.5,0.5,6.6,1.6
		c2.4,1.6,2.8,4.4,2.8,7.5h-16.6c0,3.3,1.1,6.3,7.5,6.3c2.8,0,5.6-0.5,8.5-0.9v1.7C522.4,308.4,519.6,308.7,516.6,308.8"/>
	<path class="st0" d="M531.5,308.4v-16.3h1.6l0.2,0.9c3.4-0.9,5-1.4,8.1-1.4h0.2v1.9H541c-2.5,0-4.1,0.3-7.7,1.3v13.6L531.5,308.4z"
		/>
	<path class="st0" d="M552.5,293.3c-5.2,0-7.1,2.4-7.4,5.6h14.6C559.7,295.4,557.8,293.3,552.5,293.3 M552.5,308.8
		c-3.1,0-5.2-0.5-6.7-1.9c-1.9-1.6-2.5-4.1-2.5-6.7s0.9-5.3,3-6.9c1.9-1.3,4.1-1.7,6.3-1.6c2.4-0.2,4.5,0.5,6.6,1.6
		c2.4,1.6,2.8,4.4,2.8,7.5h-16.8c0,3.3,1.1,6.3,7.5,6.3c2.8,0,5.6-0.3,8.5-0.9v1.7C558.3,308.4,555.5,308.7,552.5,308.8"/>
	<path class="st0" d="M582.7,294.4c-2-0.8-4.4-1.1-6.6-1.1c-5.6,0-8.3,1.9-8.3,6.9c0,4.7,2.2,6.7,6.4,6.7c2.8-0.2,5.6-0.6,8.5-1.3
		V294.4z M583,308.4l-0.2-0.9c-2.8,0.8-5.8,1.3-8.8,1.4c-2,0.2-4.1-0.5-5.8-1.7c-1.9-1.6-2.5-4.1-2.5-6.9c0-3,0.9-5.6,3.6-7.1
		c2-1.1,4.2-1.6,6.6-1.4c2.4,0,4.5,0.3,6.7,1.1v-7.5h1.9v23.2L583,308.4z"/>
	<path class="st0" d="M612.5,293.3c-2.8,0.2-5.6,0.6-8.5,1.3v11.3c2,0.8,4.4,1.1,6.6,1.1c5.6,0,8.3-1.9,8.3-6.9
		C618.9,295.5,616.7,293.3,612.5,293.3 M617.3,307.3c-2,0.9-4.2,1.6-6.6,1.4c-2.5,0-4.9-0.5-7.2-1.3l-0.2,0.8h-1.3V285h1.9v7.7
		c2.8-0.8,5.6-1.1,8.6-1.4c2-0.2,4.1,0.5,5.8,1.7c1.9,1.6,2.5,4.1,2.5,6.9C620.9,302.9,620,305.9,617.3,307.3"/>
	<path class="st0" d="M623.5,314.5v-1.7c0.9,0.2,1.9,0.2,2.4,0.2c2.4,0,3.8-0.6,5-3.3l0.6-1.3l-8.6-16.3h2.2l7.2,14.1h0.2l6.9-14.1
		h2.2l-9.1,18.3c-1.7,3.3-3.4,4.4-6.7,4.4C625,314.6,624.2,314.6,623.5,314.5"/>
	<path class="st0" d="M667.9,299h-6.3v5.6h6.3c4.4,0,6-0.5,6-2.8C673.9,299.3,671.7,299,667.9,299 M666.7,289.9h-5.2v5.8h5.2
		c4.2,0,6-0.5,6-3C672.8,290.2,670.6,289.9,666.7,289.9 M676.6,306.8c-2.4,1.4-5.2,1.6-10.2,1.6h-9.6v-22.1h9.4c4.4,0,7.1,0,9.4,1.4
		c1.6,0.9,2.4,2.7,2.2,4.4c0,2.4-0.9,3.9-3.4,4.9v0.2c2.8,0.6,4.7,2,4.7,5.2C679.1,304.1,678.1,305.9,676.6,306.8"/>
	<path class="st0" d="M698.2,301.5c-1.9-0.2-3.8-0.3-5.8-0.3c-3.3,0-4.5,0.6-4.5,2.2c0,1.6,0.9,2.2,3.4,2.2c2.4,0,4.5-0.5,6.9-0.9
		V301.5z M699.1,308.4l-0.2-0.9c-2.8,0.8-5.8,1.3-8.8,1.4c-1.7,0.2-3.4-0.3-4.9-1.3c-2.2-1.7-2.4-5-0.6-7.1c0.5-0.5,0.9-0.9,1.6-1.3
		c1.7-0.8,4.1-0.9,6.1-0.9c1.7,0,3.9,0.2,6,0.2v-0.3c0-2.5-1.7-3.4-6.3-3.4c-1.7,0-3.9,0.2-6,0.3v-3.3c2.4-0.2,4.9-0.3,7.1-0.3
		c2.8,0,5.8,0.2,7.5,1.6c1.9,1.3,2.2,3.1,2.2,5.6v9.6L699.1,308.4z"/>
	<path class="st0" d="M723.9,308.4v-8.9c0-3-1.6-4.1-4.2-4.1c-2.2,0.2-4.5,0.5-6.6,1.1v11.9h-4.5v-16.3h3.8l0.2,1.1
		c2.8-0.8,5.8-1.3,8.6-1.4c2-0.2,3.9,0.5,5.6,1.7c1.3,1.1,1.7,2.8,1.7,5v9.9H723.9z"/>
	<path class="st0" d="M741.3,308.8c-2,0-4.4-0.3-6.1-1.7c-2-1.6-2.5-4.1-2.5-6.9c0-2.5,0.8-5.3,3.3-6.9c2-1.3,4.5-1.6,7.2-1.6
		c1.9,0,3.8,0.2,5.6,0.3v3.4c-1.6-0.2-3.6-0.3-5.2-0.3c-4.4,0-6.4,1.4-6.4,5c0,3.4,1.6,5,5,5c2.4,0,4.5-0.3,6.9-0.8v3.3
		C746.6,308.4,743.9,308.7,741.3,308.8"/>
	<path class="st0" d="M762.6,295.1c-4.4,0-6.3,1.4-6.3,5c0,3.6,1.9,5.3,6.3,5.3c4.4,0,6.1-1.3,6.1-5
		C768.7,296.6,767,295.1,762.6,295.1 M770.4,307.1c-2,1.4-4.5,1.7-7.8,1.7c-3.3,0-5.8-0.3-7.8-1.7c-2.2-1.4-3.1-3.9-3.1-6.9
		s0.8-5.5,3.1-6.9c2-1.3,4.5-1.7,7.8-1.7c3.3,0,5.8,0.3,7.8,1.7c2.2,1.4,3,3.9,3,6.9S772.6,305.6,770.4,307.1"/>
	<path class="st0" d="M799.6,308.8c-2.7,0-5.6-0.5-8-2.4c-2.7-2.2-3.4-5.6-3.4-9.2c0-3.3,1.1-7.1,4.5-9.4c2.7-1.7,6-2,9.4-2
		c2.5,0,5,0.2,7.7,0.3v3.9c-2.4-0.2-5.3-0.3-7.5-0.3c-6.3,0-8.9,2.4-8.9,7.5c0,5.2,2.5,7.5,7.1,7.5c3.3-0.2,6.6-0.6,9.9-1.3v3.9
		C806.8,308.2,803.2,308.7,799.6,308.8"/>
	<path class="st0" d="M823.5,294.4c-3.8,0-5.2,1.4-5.5,3.8h11C828.9,295.7,827.3,294.4,823.5,294.4 M822.9,308.7
		c-2.7,0-5-0.3-6.9-1.9c-1.9-1.4-2.7-4.1-2.7-6.7c0-2.5,0.8-5.3,3.1-6.9c2-1.4,4.5-1.7,7.1-1.7c2.4,0,5,0.3,7.1,1.6
		c2.7,1.9,2.8,4.7,2.8,8h-15.5c0.2,2.5,1.4,4.1,6,4.1c3,0,5.8-0.3,8.6-0.8v3.1C829.5,308.2,826.2,308.7,822.9,308.7"/>
	<path class="st0" d="M853.8,308.4v-8.9c0-3-1.6-4.1-4.2-4.1c-2.2,0.2-4.5,0.5-6.6,1.1v11.9h-4.5v-16.3h3.8l0.2,1.1
		c2.8-0.8,5.8-1.3,8.6-1.4c2-0.2,3.9,0.5,5.6,1.7c1.3,1.1,1.7,2.8,1.7,5v9.9H853.8z"/>
	<path class="st0" d="M871.2,308.8c-2.2,0-4.2-0.6-5.3-2.4c-0.9-1.4-1.3-3.1-1.3-4.9v-6.1h-3.3v-3.4h3.3l0.5-4.9h4.1v4.9h6.4v3.4
		h-6.4v5.2c0,1.1,0.2,2,0.5,3.1c0.5,1.1,1.6,1.6,3,1.6c1.1,0,2.2-0.2,3.3-0.3v3.3C874.3,308.5,872.7,308.7,871.2,308.8"/>
	<path class="st0" d="M879.9,308.4v-16.3h3.8l0.2,1.1c2.7-0.9,5.3-1.4,8-1.4c0.2,0,0.3,0,0.6,0v3.9c-0.5,0-1.1,0-1.6,0
		c-2.2,0-4.2,0.3-6.4,0.8v12.1L879.9,308.4z"/>
	<path class="st0" d="M909.1,301.5c-1.9-0.2-3.8-0.3-5.8-0.3c-3.3,0-4.5,0.6-4.5,2.2c0,1.6,0.9,2.2,3.4,2.2c2.4,0,4.5-0.5,6.9-0.9
		V301.5z M910,308.4l-0.2-0.9c-2.8,0.8-5.8,1.3-8.8,1.4c-1.7,0.2-3.4-0.3-4.9-1.3c-1.3-0.9-1.9-2.4-1.9-3.9
		c-0.2-1.9,0.9-3.6,2.8-4.4c1.7-0.8,3.9-0.9,6.1-0.9c1.7,0,4.1,0.2,6,0.2v-0.3c0-2.5-1.7-3.4-6.3-3.4c-1.7,0-3.9,0.2-6,0.3v-3.3
		c2.4-0.2,4.9-0.3,7.1-0.3c2.8,0,5.8,0.2,7.5,1.6c1.7,1.4,2.2,3.1,2.2,5.6v9.6L910,308.4z"/>
	<path class="st0" d="M919.4,285.2h4.5v23.2h-4.5V285.2z"/>
</g>
</svg>
